# xmcd
#
# Track frame offsets: 
#        150
#        22530
#        38461
#        59859
#        83547
#        98310
#
# Disc length: 1499 seconds
#
# Revision: 0
# Processed by: cddbd v1.5.2PL0 Copyright (c) Steve Scherf et al.
# Submitted via: ExactAudioCopy v0.99pb3
#
DISCID=3005d906
DTITLE=Fabulous Fortunes, The - Fabulous Fortunes Christmas
DYEAR=1900
DGENRE=Christmas/Holiday
TTITLE0=Have Yourself A Merry Little Christmas
TTITLE1=All I Want This Year For Christmas
TTITLE2=The Christmas Song
TTITLE3=Santa Claus Is Coming To Town
TTITLE4=Feliz Navidad
TTITLE5=It's Christmas Time
EXTD=
EXTT0=
EXTT1=
EXTT2=
EXTT3=
EXTT4=
EXTT5=
PLAYORDER=
